<?xml version="1.0" encoding="utf-8"?>

<!DOCTYPE svg PUBLIC "-//W3C//DTD SVG 1.1//EN" "http://www.w3.org/Graphics/SVG/1.1/DTD/svg11.dtd">

<svg version="1.1" xmlns="http://www.w3.org/2000/svg" xmlns:xlink="http://www.w3.org/1999/xlink" x="0px" y="0px"
	 viewBox="0 0 600 600" style="enable-background:new 0 0 600 600;" xml:space="preserve">

	<style type="text/css">
		.my_gradient{opacity:0.8;fill:url(#SVGID_1_);}
		.my_gradient:hover{opacity:1;}
		.st0{opacity:0.8;fill:url(#SVGID_2_);}
	</style>

	<linearGradient id="SVGID_1_" gradientUnits="userSpaceOnUse" x1="0" y1="0" x2="1" y2="0">
		<stop  offset="0" style="stop-color:#FEFF00"/>
		<stop  offset="1" style="stop-color:#FF00FF"/>
	</linearGradient>

	<g id="background">
		<linearGradient id="SVGID_2_" gradientUnits="userSpaceOnUse" x1="109" y1="251" x2="461" y2="251">
			<stop  offset="0" style="stop-color:#FEFF00"/>
			<stop  offset="1" style="stop-color:#FF00FF"/>
		</linearGradient>
		
		<circle class="st0" cx="285" cy="251" r="176">
			<animateTransform
				attributeName="transform"
				begin="0s"
				dur="3s"
				type="rotate"
				from="0 285 251"
				to="360 285 251"
				repeatCount="indefinite" />
		</circle>
	</g>

	<g id="cat">
		<g>
			<g>
				<path d="M282.8,281.1c4.2,1.3,7.9-1.6,12.1-1.3c0.2-1.8-2.1-0.6-2.4-1.9c1-1,2,0,3,0c1.7,0,3.9,1.3,4.6-1.7
					c0.2-0.9,1-0.1,1.4-0.1c1.3-0.2,3.4,2,3.9-1.2c0.1-0.7,0.7,0.3,1.1,0.2c1.3-0.2,3.8,1.7,3.2-1.9c-0.1-0.5,0.8-0.3,1.2-0.4
					c1-0.1,2.4-0.3,1.9-1.5c-0.5-1.1-2.2-2.1-3.2-1.3c-1.3,1-3.2,1.2-3.7,0.5c-2.3-3.3-6-3.9-9.3-5.4c-0.5-0.2-8.1-0.6-8.4-0.1
					c-0.9,1.2,0.8,2.2,0.4,3.4l0.1-0.1c-1.8-2.1-3.4-4.3-6.6-4.7c-1-0.1-1.5-0.3-2.1,0.5c-0.3,0.4-1.3,0.5-0.7,1.3
					c0.4,0.6,1.1,1.4,1.8,1c1.5-0.7,2.5,0.6,4,0.6c-4.4,1-5.4,0.7-8.3-1.8c-1-0.9-2.2-2.2-3.8-0.9c-0.9,0.7-1.7,0.1-2.4-0.2
					c-2.1-0.8-4.1-2.9-5.9,0.3c-0.3,0.5-0.9,0-1.5-0.3c-3-1.2-5.9,0.1-8.8,0.7c-1.7,0.3,0.3,2.8-1.7,3.2c-1-1.5-1.3-3-0.6-4.7
					c0.4-1,0.2-2.2-0.6-2.7c-0.9-0.7-1.9,0.1-2.6,0.8c-1.1,1.1-2.8,1.7-2.8,3.7c0,0.8-0.4,1.2-1.2,1.6c-7,3.6-7.6,8-2.2,14.2
					c1.5,1.8,3.3,3.3,6,4.6c-3.5,1.1-6,1.5-9,0c-2.8-1.4-6.4-1.1-9.7-1.6c-0.6-0.1-1.6-0.1-1.6,0.5c-0.2,3.4-3.8,5.3-3.3,9.3
					c0.4,3.2-2.3,6.7,1.7,9.5c0.4,0.3-1.5,2-1.3,3.4c-3.8-2.1-4.1,2.4-6.3,3.4c1.8-3-1.5-4.7-1.6-7.3c-1,2-1.4,4.2-3.2,5.6
					c0.7-1.3,0.7-2.5-0.9-2.7c-1.3-0.2-1.5-1.4-2.3-2c4.4-4.2,4.4-9.7,4.9-15.2c0.3-2.9,1.8-6,3.6-8.4c1.6-2.2,1.7-5,3.5-7
					c0.5-0.5,0.9-2,0.4-3.1c-0.4-1-0.6-1.9,0.5-2.6c1.5-1,1.8,0.8,2.7,1.2c1.7-2,0.4-4.7,1.6-7c0.7-1.4-1.7,0.7-2.1-0.9
					c0.8-1.4,3.3-2.6,2.4-4.7c-0.8-1.8-1.9,1.1-3.2,0.4c-0.8-0.4-0.4-0.9,0-1.4c1.5-1.8-2.5-0.8-1.2-2.5c-1-0.4-0.9,0.7-1.1,1
					c-0.6,1.2-2.1,1.2-2.9,2.1c1.1-1.3-1.3-2.3-0.3-3.6c1.4-1.8,1.4-1.8,0.4-3c0-0.8,0-1.7,0-2.5c-0.4-1.4-1.2-2.8-1.2-4.2
					c0-1.1-0.9-3.4,2-3.1c0.6,0.1,3.2-0.8,0.6-2.4c0.8-1-2.3-2.8,0.8-3.6c0.6-0.2,0.5-2.5,0.8-4.2c1.2,0.9,0.9,3.3,2.9,2.8
					c0.9-0.2,2.2,0.4,2.5-0.5c0.5-1.8-1.5-0.9-2.4-1.6c1.1-1.5,2.3-2.1,4.4-1.2c-0.6-1.4-1-2.4-1.4-3.6c0.8,0.3,1.4,0.4,2,0.6
					c-1-1.8,1.4-4.7-1.9-5.8c-1.3-0.4-0.5-1.6-0.2-2.1c0.9-1.8,1.7,0.5,2.7,0.3c1.5-0.3,1.1,0.4,0.5,1.1c-1.5,1.7,0.3,3,0.2,4.5
					c2.4-0.3,0.2-4.7,3.7-3.7c0.1,0,0.2-1.2-0.2-1.2c-3.2-0.2-0.4-2.6-1.3-3.6c0,0-0.1,0.1-0.1,0.1c1,0.8,2.1,1.7,3.2,2.6
					c2.2-3.8-2.3-7.5-0.7-11.5c0.8,0.7,1.5,1.5,2.2,2.2l-0.1-0.1c0.1,0.9-1.1,2.3,0.8,2.6c2.2,0.4,1.1-1.3,1.4-2.1
					c1.3-3.4,0.7-7.2,2.6-10.4c1.1,2.1,0,4-0.3,6c-0.1,0.5-0.3,1.3,0.5,1.5c0.3,0.1,0.8-0.1,1-0.4c2.2-1.7,3.4-3.9,3-6.8
					c0-0.2,0.2-0.4,0.3-0.6c1.5,0.2,0.4,2.1,1.7,2.5c2.4-2.4-1.1-4-0.9-6.1c0.9-0.7,1.7,0.1,2.5,0.2c1.3,0.2,3.2,1.4,2-1.8
					c-0.6-1.4,1-2.5,2.7-3c2.5-0.7,4.9-1.3,7.9-0.8c-2.5-2.9,0.5-4.3,1.3-4.2c3.8,0.1,5.3-2.7,6-5.1c1.8-6,5.9-10.7,9.2-15.4
					c5.1-7.1,7.7-14.5,8.4-23c0.2-1.9-0.9-5.1,2.4-6.2c0.2-0.1,0.5-0.6,0.5-0.8c-1-6.3,1.4-12.3,3.2-17.7c2.9-8.5,9-15.3,18.7-17.4
					c2.6-0.6,4.8,0.5,6.9,1.1c9.3,2.7,15.8,9.3,21.3,17.1c4.5,6.5,6.6,14,10.2,20.9c3.5,6.7,4.2,14.1,6.8,21
					c2.2,5.9,6.4,11.2,11.1,15.9c4.1,4.2,8.8,7.8,11.4,13.3c2.7,5.8,5.7,11.5,7.8,17.5c1.9,5.6,3.9,10.8,8.2,15.7
					c3.6,4,7.2,8.4,10.9,12.4c2.7,2.9,4.8,6.4,8.2,8.9c5.1,3.8,8.5,9.5,13.8,13.2c3.8,2.6,8.1,4,12,6.2c4,2.3,9,2.8,12.4,6.6
					c3.8,4.4,9,7.3,13,11.6c4.1,4.5,8.9,8.5,13.1,13c2.3,2.5,4,5.5,6.1,8.2c1.4,1.7,62.8,27.7,65.5,27.2c0,68.8-60.1,113.5-60,182.2
					c0,2.6-0.5,3.1-3.1,3.1c-12.7-0.2-25.3-0.1-38-0.1c0-0.8,1.5-2,0.5-2.2c-2.4-0.4-2.6-2.5-2.5-3.7c0.3-5-5.4-5.5-6.5-9.7
					c1.8,0.3,2.5,1.9,3.6,2.7c0.9,0.7,1.5,2.4,3,1.3c1.3-0.9-1.3-1.6-0.1-3.7c1,1.4,1.6,2.6,2.6,3.6c0.6,0.6,1.5,1.3,2.1-0.5
					c0.3-0.7,1.1-0.7,0.2-1.8c-1.3-1.6-3.3-2.6-4.2-4.8c2.6-0.8,3.5,1.4,5,2.4c0.5,0.3,0.9,1,1.5,0.4c0.5-0.6,0.2-1.2-0.4-1.5
					c-1.3-0.8-2.1-2-3-3.2c0.5-1.2,2.3,1,2.2-0.7c-0.1-1.1-1.2-2.2-2.7-1.5l0,0c-1.2-4.8-6.3-5.5-9.8-9.2c2.8,1,4.8,1.8,7.1,2.6
					c-0.3-0.8-0.6-1.4-0.8-1.9c2.3,1.2,4.5-2.3,7-0.2c-0.5-1.1-2.3-2-1-3.5c1.1,0.9,1.1,0.9,2.5-0.2c0.6-0.5,1.1,0.1,1.6,0.3
					c0.9,0.3,1.4,1.7,3.1,0.8c-2.4-1.9-4.4-3.6-7.2-3.8c-0.5-2.2-2.4-3-4-4.2c-0.9-0.7-2.5-1.6-1.3-2.9c0.9-1.1,2.3-2.5,4.1-1.6
					c0.6,0.3,1.1,0.7,1.5,0.1c0.5-0.7,0.1-1.5-0.6-1.8c-1.7-0.8-3.3-1.6-4.4-3.2c-0.8-1.1-1.1-2.2-1.2-3.6c-0.2-1.5-1.3-3.7-3.2-4.7
					c-1.8-1-3.6-2-5.3-3c0.9-1.9,3,1.7,3.3-1.1c0,0-0.1,0-0.1,0c1.8,0.4,3.5-0.8,5.4-0.4c-1.2-0.9-2.3-1.8-3.5-2.7
					c-2.2-1.5-3.3-4.6-6.6-4.6c-0.6,0.1-1.3,0.2-1.9,0.3c1.6-2.1-0.9-2.6-1.6-3.7c-0.5-0.7-2.2-0.7-2.2-0.1c-0.3,2.9-3.2,1.6-4.3,3
					c-0.1-0.5-0.2-0.6-0.4,0c0.3,2.6,0.9,3.1,3.3,2.4c1.8-0.5,3.6-1.2,5.4-1.7c-1.2,0.3-1,1.3-0.8,2.1c0.3,1.9-0.6,2.3-2.8,1.4
					c0,0.4,0,0.8,0.1,1.2c0.6,0.3,1.2,0.5,1.6,0.9c0.5,0.4,1.3,1,0.2,1.7c-0.6,0.4-1.1,0.1-1.5-0.6c-1.2-2.4-2.5-3.2-4.5-0.7
					c-0.5,0.6-1.4-0.6-2.1-1c-2.5-1.7-3.5-5.1-6.9-6.5c-0.1,1.8,3.2,3.4,0,4.8c-0.5,0.2,0.2,1.7,1,2.1c2.2,1,1.1,3.1,2,4.6
					c-1.6-2-3.4-3.4-5.8-5.4c0.4,2.4,2.7,3.5,2.2,5.1c-0.5,1.5-1.9,2.6-3,3.9c-3-1.1-3.4-7.6-8.7-4.2c1.1-2.6-0.5-4.3-2.3-5.9
					c1.6,2.6-0.5,5.7,1.3,8.3c-0.1,0.3-0.2,0.7-0.3,1c0,1.5,0,3.1,0,4.7c-2.2-1.1-2.6-3.1-3.2-5c-0.3-0.9-0.8-2.2-1.9-1.9
					c-1.8,0.4-0.1,1.5-0.1,2.3c0,1.4,0.3,2.5,1.9,3.4c2.5,1.4-0.4,4.4,1.6,6.3c-6.3-2.1-5.2-8.3-8-12.9c-1.6,5.1,2.3,8.4,2.9,12.6
					c-3.2-2.5-2.2,0.8-3,3.1c-1.4-4.8,0.1-9.2-2.2-12.7c-1.3,1.6-0.1,3.9-1.3,5.6c-1.1-0.3-1.9-1-2.2-1.9c-0.7-2-1.6-3-3.8-1.5
					c-1.2,0.8-2.2,0-2.5-1.2c-0.3-1.5-1-1.8-2.3-1.2c-1.6,0.7-0.4,1.4-0.2,2.3c1.4,5.4,4,10.9-0.7,16.2c-1.1-0.1-0.2-1.5-1.3-2.3
					c-0.1,0.2-0.2,0.6-0.4,0.9c-0.6,1-0.1,1.9,0.3,2.8c0.4,1,0,1.8-1,2c-1.3,0.2-0.6-1.1-0.9-1.6c-0.4-0.7-0.5-1.4,0.1-2.1
					c0.3-6.7-0.1-13.3-3.5-19.3c-0.5-0.9-0.3-2.1,0.1-2.4c4.2-2.4,1.3-8.4,5.5-10.8c0.1-0.1,0.1-0.9-0.1-1c-1.7-1.2-2.1-3.5-4.3-5.7
					c0.6,2.7-0.6,4.2-1.7,4.4c-1.5,0.3-2.5-1.4-3.3-2.8c-1.1-1.8-2.4-3.4-2.7-5.7c-2.1,2.5,0.3,4.1,0.5,6c0.6,5.2,1.4,10.5,2.9,15.3
					c1.5,4.9,0.5,9,0,13.9c-0.4-0.9-0.5-1.7-0.8-1.9c-0.8-0.4-1.1,0.4-1.2,1c-0.3,3.2-0.6,6.4-0.9,9.6c1.7-2,6-2,4.9-5
					c-1.6-4.3-0.1-7.8,1.4-12c0.2,2.5,1.2,5.3,0.3,6.5c-2.4,3-0.1,4.7,1,6.8c0.6,1.1,1.3,2.1,1.9,3.2c-1.1-0.1-2.4-0.7-2.6,1
					c-0.3,2.2-0.4,3.5-2.2,0.6c-0.3-0.5-1.3,0.1-1.2,1.1c0.2,2.1,0,4.1-0.6,6.7c-1.4-1.9-0.2-3.3,0.1-4.9c-2.9,1.6-3.7,3.5-2.5,6.1
					c0.6,1.2,0.7,2.3-0.2,3.4c-1.1,1.5-1,3,0.3,4.3l0.1-0.1c-1.2,1.7-2.3,3.5-3.5,5.1c-0.7,0.9-0.8,2.7-2.5,2.2
					c-1.7-0.5-1.3-2.1-1.3-3.4c0,0-0.1,0.1-0.1,0.1c2.7-3.6,2.1-8.2,4.1-12.6c-2.2,0.8-2,2.6-3.2,3.4c1-2-1.8-5.2,2.3-6.2
					c-0.4-4,2.9-7.1,2-11.5c-0.5-2.6,0.9-5.9,2.5-8.6c1.2-2,0.1-5.2-2-5.8c-1.5-0.4-1.3,0.9-1.1,1.6c0.3,1.3,0.7,2.6,0.4,4
					c-0.1,0.4-0.2,0.7-0.6,1.6c-0.8-1.5-0.4-3.5-2.7-3.9c1,2.5,0.6,4.5-1.9,6c-1.5-3.2,1.2-5.6,1.3-8.4c0-0.7,1.6-1.9-0.9-1.5
					c-1.2,0.2-0.8-1.6-0.2-2.6c2.7-4.2,2.6-5.1-1.6-7.1c-1.2-0.6-1.3-1.7-2.3-2.1c0,0,0.1,0.1,0.1,0.1c-1.1-1.2-2.7-2.2-2.6-4.3
					c-3.3,3.1-3.7,3.7-4.4,6.3c-1.8-2.1-2.2-4.3-2.4-6.9c-2.9,1.6-2.9,5.8-6.2,6.9c2.8-2,2.3-5.3,2.8-8.2c-1.1,2.1-2.3,4.2-3.4,6.3
					c0.5-0.8,0.7-1.9-0.2-2.3c-1.6-0.7-1,2.1-2.6,1.9c-0.9-0.9,0.1-2.4-1.2-3.6c-1.8,2.4-5.8,2.2-6.6,5.9l0.1-0.1
					c-0.6-3.6,2.9-4.8,4-7.8c-0.7-1.6-3.3,2.6-3.9-0.7c0.1-0.4,0.2-0.8,0.3-1.3c5.2-7,6.7-11.6,5-15.9c-0.9,2.2-2.3,3.7-2.6,6.2
					c-0.3,2.1-0.8,4.7-3,6.1c0.3-1,0.9-2,0.2-4c-1.5,3.8-3.4,6.7-5.9,9c-0.2,0.1-0.1,0.5-0.3,0.7c-1.8,1.6,1.7,3.9,0.3,4.2
					c-1.7,0.3-3.2,0-3.8,2.6c-0.1-1.8,0-3.3-1.5-4c-1.9-0.9-1.5,1.9-3.4,1.8c2-2.6,3.3-5.2,1.5-8.3l-0.1,0.1c2.3,0.5,2-2.6,3.8-2.8
					c1.4,0.5-0.7,2.1,0.8,2.4c1.2,0.2,1.5-1.1,2-1.9c0.6-1,1.1-2.1,1.7-3.2c1.2,0.6,0.6,1.7,1.4,2.5c2-1.7,3.9-3.3,3.3-6.4
					c-0.2-0.8,0.2-1.5,0.8-2c1.4-1.3,0.9-2.7-0.4-3.3c-1.1-0.4-2.8-0.4-3.5,1.4c-0.8,2-2.3,3.8-2.6,6.1c-0.1,1-0.3,2.3-1.9,2.6
					c-0.8-2.4,0.8-4.3,1.5-6.2c0.8-2.2,1-3.9-1.7-3.9c-2,0-0.9-2-1.2-1.9c-2,0.9-3.9-1.8-6.5,0.3c3.6-5.6-1.5-6.8-3.9-8.9
					c-5-4.6-11-8-16-12.7c-1.2-1.2-1.8-2.3-2.1-4.1c-0.6-3-2.5-5.7-4.3-8.3c-1.9-2.6-3.4-5.4-4.2-8.5c-0.2-0.9,0.3-2.1-1.7-1.5
					c-1.3,0.4-3.2-0.1-2.8-2.5c0.1-0.6-0.3-1.4-1.1-0.9c-3.7,2-5.8-1.3-8.3-2.7c-1.7-1-2.6,2-3.9,0.2c-0.8,1.2-0.2,2.1,0.7,2.9
					c1.3,1.1,2.7,2.2,4,3.2c-0.3,0.3-0.5,0.6-0.8,0.8c-2.4-2-4.8-3.9-7.2-5.9c-0.5-0.4-1-0.6-1.5-1c-2,5.2-3.9-0.6-5.9-0.1
					c-2-1-4.1-2-6.1-3c-4.1-4.6-9.9-6.8-15.1-11.1c0.5,2,2.6,2.4,2.1,4.5c-2.2-3.4-7.2-1.6-8.8-6c3.3,0.3,6.7-0.3,10.4,1.5
					c-0.8-1.3-1.3-2.1-1.7-2.8c2.1,2.1,5.3-1.1,7.3,2.8c0.3-4.9-4.2-4.8-4.8-7.6l-0.1,0.1c2,0.9,3.9,1.8,5.9,2.7
					c-1.9-1.7-1.4-4.6-3.3-6.1c1.4-3.7,4.9-2.3,7.5-2.8c-0.4-3.4-5-2.4-5.5-5.9c2.1-1.6,4.6-2.6,7.7-2.9c-5.9-1.3-9.1-5.9-12.9-9.7
					c1.5-3.9-3.7-4.8-3.5-8.1c0-0.8-0.2-0.8-2.5-1.4c-0.1-1.4,2.6-1.1,1.7-3c-0.6-1.3-1.6-1.5-3-1.3c1.7-1.3,2.5-3.8,5.5-3.4
					c0.2,0,0.9-2,2.8-2.9c4-2,7.2-1.8,10.8,0c0.2,0.1,0.6-0.1,1-0.2c0-1.5-2.3-0.5-2.1-2.2c1.3-0.7,2.9,1.6,4.4-0.5
					c-1.4-0.5-3.1-1.7-4-1.3c-2.4,1.1-0.9-1-1.4-1.5c-1-0.8-0.3-2,0.5-1.9c4.3,0.2,6.2-4.8,10.3-4.9c0.8,0,1.3-0.8,1-1.2
					c-2.1-4,3.4-4.6,3.5-7.7c0-0.7,1.3-0.2,2-0.1c1.9,0.4,3.2-0.6,4.2-1.8c2.3-2.6,5-3.1,8.3-1.2c-1.2,1.3-2.2,2.7,0.4,3.6
					C281.6,278.9,282.1,280.1,282.8,281.1z M444.5,429.2c-0.9-0.8-1.9-1.6-2.7-2.5c-1.7-2-2.3-1.9-3.4,0.7c2.1,2.9,4.7,5.1,8.2,6
					c1-1-1.7-3.9,1.8-3.7c-0.2-0.4-0.4-0.9-0.7-1.2c-0.8-0.7-1.4-1.7-2.8-1.7c-0.6,0.6,2.2,2.3-0.6,2.3L444.5,429.2z M440.5,437.6
					c-1.2,0.1-1.9-1.6-3.8-0.7c3.5,2.3,6.5,4.5,9.1,7c1.8-4.5-2-4.1-4.1-5.2c1.3-0.4,2.4-1.3,1-2.4c-1.4-1.1-3-2-4.1-3.6
					c-0.4-0.6-1-0.8-1.5-0.2c-0.5,0.6-0.1,1.1,0.3,1.6C438.4,435.2,439.5,436.4,440.5,437.6z M349.9,232.2c2,0.6,3.5,2.3,5.8,2.1
					c0.3-0.2,0.6-0.5,0.9-0.7c4.5-3.2,4.5-3.2,8.8,0.4c0.3,0.2,0.9,0.4,0.9,0.4c2.1-3.8,3.5,0.2,5.2,0.6c2.1,0.4,3-0.6,2.9-2.2
					c-0.1-2.6-1.1-5.8-3.1-6.5c-1.6-0.5-2.3-3.4-4.4-1.9c-2.4,1.6-4.7,3.2-8,2.6c-1.7-0.3-3.7,0.2-4.7,2.3c0.5-0.7,1.9-1.5-0.3-2
					C350.4,226.5,349.2,227.9,349.9,232.2z M446.7,398.6c0.9,3.6,3.1,4.5,6.5,2.6C450,402.6,449.2,398.6,446.7,398.6
					c-0.6-1.4-1.9-2.1-3-3c-0.2-1.8-2.5-2.2-3-4.3c0.6,0.3,0.9,0.4,1.2,0.5c0.9,0.3,1.1,2.5,2.5,1.1c1-1.1,0-2.2-0.9-2.8
					c-1.5-1.2-2.3-2.5-2.2-4.4c4.8,0.7,8.2,4.3,12.6,6.1c-3-3-6.2-5.9-9.6-8.2c-1.3-0.9-3.2-0.1-2.9,2.3c-0.9-0.6-1.9-1-2.8-1.7
					c-1.6-1.4-3.4-1.7-5-0.3c-1.9,1.7-0.4,3.3,0.6,4.7c-0.4-0.6-1.1-0.9-1.2,0c-0.3,2.6-0.2,5.1,2.4,6.7c-4.7-1.1-4.9-1.1-3.4,3
					c0.7,2-1.5,1.6-1.5,2.7c0.3-3.3-3.2-3.9-4.2-6.3c-0.1,2.6-0.1,2.6,4.2,6.5c-0.7,0-2,0.4-1.3,0.8c2.7,1.5,4.7,4.1,8.3,5.4
					c-5.3-3.6-3-6.2,0.3-8.7c0.7,1.1,1.6,1.4,2.8,1.3c-1.4,1.1-0.4,1.7,0.6,2c0.7,0.2,1.6,0,1.8,0.9c0.9,4.5,4.5,4.8,8,5.1
					c-2.9-3.4-6.3-6-10.1-8.1c0.3-2.8,1.7-3.5,4.1-2.1C445.6,398.2,446.2,398.4,446.7,398.6z M356.6,272.9c-5.9,0-11.8-2.7-18.7-1.1
					c3.5,1.3,6.4-0.4,8.7,0.8c3.4,1.8,6.6,0.7,9.9,0.1c1.1-0.4,2.3-0.8,3.5-1.2c-1.3-2-3.4-2.4-5.2-2.4c-1.3,0-1.5,0.7-1.6-0.3
					c-0.1-1.4-0.9-1.2-1.7-1.3c-0.7-0.1-1.1,0.4-1.3,1.1c-0.3,1.1,0.3,1.6,1.3,1.8c1.3,0.2,2.5,1.2,3.9,0.8
					C356.9,270.9,356.5,272.1,356.6,272.9z M430.3,417.2c0.6,0.8,1.6,1.7,2.3,0.7c0.5-0.7,1.3-2.2,0.1-3c-1.1-0.8-1.7-2.6-3.1-2.3
					c-1.4,0.3-1.2,1.6-0.6,2.7c-0.9-4.3-5.2-3.2-7.7-4.9c3.5,2,4.9,5.8,8,8.2c0.5,0.4,1,1.4,1.8,0.7
					C431.8,418.4,431.1,417.7,430.3,417.2z M448.2,371.5c-3.3-0.2-6.7-1.9-10,0.8c2.3,0.5,4.5,0.1,6.6,1.5c2.1,1.4,4.8-0.1,5.1-1.9
					c2,0.5,3.8,1.8,6.4,1.1c-4.3-1.6-8.2-3.1-12.1-4.6c-0.1,0.2-0.2,0.4-0.3,0.6C445.3,369.9,446.8,370.7,448.2,371.5z M308.7,277.6
					c-1.8,0.6-3.6-0.2-5.5,0c-1,0.1-2.1-0.3-2,1.3c0.1,2.5-1.4,1.8-3,1.8c-2.9-0.1-5.7,0.8-8.2,2.2c4-0.7,7.9-1.2,11.9-0.8
					c2.2,0.2,4.5,2.4,6.8,0.1c2.1,0.7,4,2.4,6.9,1.9c-1.9-2.9-4.2-3.2-6.8-1.8c-2.1-0.5-3.7-2.1-6.2-1.9
					C304.1,277.6,307.3,279.7,308.7,277.6c3.6,3.2,7.6,3.9,9.5,0.6c-2.3,1.9-3.8,1.2-5.3-0.1C311.7,277.1,310.2,277.1,308.7,277.6z
					 M356.1,249.9c0.2-2.3-1.4-2.1-2.6-1.6c-1.7,0.6-4.7,0.3-3.6,3.7c-1-1.1-2.3-1.2-3.6-1.6c-0.3-0.1-0.6-0.7-0.7-1.1
					c-0.1-0.3,0.2-0.6,0.7-0.6c2.9,0.5,4.3-3.1,7.3-2.4c-4,0-9.1-2.6-10,4.2c0,0.2-0.4,0.4-0.6,0.4c-3.1-0.3-3,2.5-4,4.2l0.2-0.1
					c-1.2,0.6-3.7,0.4-2.9,2.3c0.6,1.4-2.2,4.3,1.7,4.3c0.3,0,0.8,0.9,1,1.4c0.8,2.6,3.2,2.5,5.2,2.6c1.4,0.1,3-0.5,1.9-2.7
					c-0.2-0.4,0.5-0.6,0.7-0.4c3,2.8,6.4-1.1,9.5,0.6c-4.7,1-9,3.8-14.2,2.9c-2.3-0.4-4.9-0.9-7.1,0.6c2.3,0.3,4.4,1.1,6.5,1.9
					c2,0.8,4.4,1.3,6,0.1c3.3-2.6,3.1-2.8,6.7-1.3c0.5,0.2,1.4,0.2,1.3,0c-0.6-3.4,2.9-0.9,3.5-2.6c-1.4,0.1-1.2-2.3-3-1.5
					c-0.5-0.4-1.3-0.7-1.3-1.2c-0.1-1.1,1-0.7,1.6-1.1c1-0.7,2.1,1.3,3.3-0.1c-1.4-0.5-2.7-1-3.9-1.4c-0.3-0.1-1.1,0.1-0.4-0.8
					c0.9-1.2,0.8-2.1-1-2.4c-0.9-0.2-2.2,0.1-2.7-2.3c1.9,1.1,3.4,1.9,4.7,0.3c0.8-1.1,0.4-1.8-0.6-2.4c1.6,1.2,3.6-0.4,5.2,0.8
					c-0.8,1.3-3.5,1.2-2.9,2.6c0.7,1.6,2.2-0.8,3.6-0.4c0.7,0.2,1.5,0.2,2.2,0c0.9-0.2,2.2,0.3,2.3-1.2c0.1-1.7-1.8-0.4-2.4-1.4
					c1.3-0.6,2.7-0.6,4.1-2.4c-4.1,0.8-7.4,1.4-10.2-1C357.3,248.7,356.5,249.5,356.1,249.9z M351.9,145.8c-0.6-3.7-1.2-4.7-3.9-6.2
					c2.9,5.5,2.5,11.4,2.1,17.4c-0.2,2.7-1.3,5.2-1.5,8c-0.3,7.3-0.3,14.6,1.6,21.7c0.2,0.8,0.6,1.7-0.9,1.8c-2,0.1-3.9,0.9-3.7,3.3
					c0.1,2.1,2,2.8,3.6,3.4c1.5-2.2-1.9-2.8-1.3-4.6c1.5-0.5,2.7,0.6,4.1,0.1c0.5-0.2,1.5,1,2.3,1.6c-1,0.1-2.5,0.1-1,1.5
					c1,0.9,2.3,0.3,3.3-0.6c2.6-2.5,2-5.7,2.1-8.7c0-0.3-0.2-0.4-0.7-0.5c-2.5-0.2-2.9-0.8-1.5-2.9c1.1-1.6,1.3-3.3,1.6-5.2
					c0.4-2.7-1.5-0.4-1.9-1c2.3-2.1,2.3-15.4,0-20.3c-1.3,0.1-1.2,2.4-2.9,1.8c0.4-3.7-1.6-7-1.6-10.7c1.5,0.7,1.5,2.1,1.8,3.4
					c0.3,1.6,0.8,3.1,2.4,3.8c0.7-0.6,0.4-1.1,0.3-1.5c-0.6-1.8-1.1-3.6-1.7-5.3C354.1,143.9,352.9,145.3,351.9,145.8z M334.5,278
					c-2.7-1.5-5.6-2.1-8.5-3c-6.7-2.1-6.6-2.3-7.8-1.4c2,1.9,5,1.9,8,3.1c-2,1.2-3.7-0.8-5.1,0.6c1.6,0.8,0,2.7,0.7,3.2
					c1.3,1.2,3.2,0.8,5.2,0.2c-1.2-0.8-2.8-0.8-3.2-2.4c2-0.5,3.7,1.1,5.5,0.2C331,277.8,332.9,280.1,334.5,278z M416.6,417.8
					c1.2,1,1.9,1.5,2.4,2.1c0.6,0.7,1,1.7,1.7,2.4c2.1,2.6,4.7,2.6,6.5-0.1c0.7-0.9,1.1-0.7,1.7-0.1c0.6,0.5,1.1,1.5,2.4,0.6
					c-1.6-1.3-3.4-2.4-4.6-3.9c-1.5-1.8-3.9-0.2-4-0.1c-0.8,2.4-2,1.2-3,0.4C419,418.6,418.3,417.8,416.6,417.8z M327.7,245.1
					c-6.2,1.9-9.4,3.9-10.5,6.2c1.4,0.3,3.2-1.2,4.3,0.7c0.4,0.7,0.7,0.4,0.8-0.2c0.3-1.7,1.7-1.4,2.9-1.7c2.5-0.7,5.9-0.6,5.1-5
					c-2,1.8-3.7,4.3-7.5,3.4C325,248,326,246.8,327.7,245.1z M343.5,245.4c-2.2,2.6-5.1,1-7.8,1.3c2.6,6.4-4.4,2-5.3,4.8
					C336.8,253.1,342.5,250.5,343.5,245.4z M456.3,512.6c1-0.3-1.1-2.6,1.1-1.5c1.5,0.7,2.4-0.3,2.9-0.8c0.9-1-0.6-1.5-1.1-2.2
					c-1.4-2-3.2-3.1-5.8-3.4C453.3,507.7,453.4,510.6,456.3,512.6z M429.4,405.3c-0.2,1.4,1.8,1.5,1.3,2.8c-0.8,2.1-0.3,2.9,1.9,2.9
					c0.8,0,1.5-0.9,2.3,0.1c0.4,0.5,1.2,0.7,1.5,0c0.2-0.5,0.2-1.5-0.1-1.7C434.2,407.7,432.7,405,429.4,405.3z M352.1,202.1
					c-3.2,4.2-4.3,11.4-1.8,14.4C348.9,211.2,353.7,207.2,352.1,202.1z M258.1,298.9c-1.6,0.6-3,1.1-4.4,1.5c-1,0.3-2.4,0.2-2,1.9
					c0.3,1.5,1.5,1.8,2.8,1.7c1.8-0.1,2.8-2.1,4.9-2c0.7,0-0.6-1.5,0.4-2.1C259.1,299.5,258.5,299.2,258.1,298.9z M452.9,469.8
					c-0.1,0.3-0.3,0.6-0.4,0.9c3.5,1.4,5.2,5.7,9.8,6.1c-0.3-2.5-1.3-5.7-3.4-4.8c-2.8,1.2-3.1-1.4-4.7-1.7
					C453.7,470.2,453.3,469.9,452.9,469.8z M290.2,285c2.6,3.3,6,2.3,9.3,2.2C296.6,285.7,293.9,282.6,290.2,285z M385.3,408.2
					c-1.3,1.6,0.7,3.1,0,4.3c-0.4,0.8-2,1.3-0.3,1.9c1.1,0.4,1.6,2.4,3,1.4c0.5-0.4,0.4-1.8,0.4-2.8
					C388.4,410.9,387.3,409.2,385.3,408.2z M396.3,438.7c0.5-0.3,1.6,1.1,1.6-0.4c0-0.9,0.6-2.7-0.3-2.6c-2.7,0.5-1.8-1.4-2.2-2.5
					c-0.2-0.7-0.2-1.6-1-1.9c-0.3-0.1-0.9,0.3-1.2,0.6c-0.6,0.7-0.9,1.6-0.2,2.3c1,1.1,1.9,2.2,1.9,3.8
					C394.8,438.8,395.3,439.7,396.3,438.7z M444,379.2c-1,0.5-2.4,0.7-2.5,1.3c-0.3,1.4,1.1,1.1,2,1.3c0.5,0.1,0.9,0.3,1.4,0.5
					c1.6,0.6,3.6,2.8,4.6,0.9c0.7-1.3-2-2.7-3.9-3.2C445,379.8,444.5,379.5,444,379.2z M418.3,429c-1.6-3.9-2.8-7.5-7.6-8.3
					C413.2,423.6,414.1,427.3,418.3,429z M321.2,263.1c-1,4-1,3.9,2.6,3.1c1.9-0.4,1.6-1.5,0.7-2.3c-2.4-1.9-5-3.4-8.7-1.9
					C317.9,262.4,319.5,262.8,321.2,263.1z M359,193.8c-0.6,0.5-2.1,0.7-1.8,1.8c0.5,1.6,1.2,3.3,3.5,3c0.9-0.1,1.8-0.3,1.5-1.5
					C361.8,195.5,361.2,194,359,193.8z M269,305.1c-4.2-0.4-8.4-2.6-12.5,0.3C260.7,304.7,264.9,306.4,269,305.1z M370.5,451.4
					c0-2.9-1.5-5.2-2.5-8C365.1,447.5,367.7,449.6,370.5,451.4z M265.8,311.7c-3.3-2.8-5.7,0.5-8.7-0.2
					C260.3,315.7,262.7,312.2,265.8,311.7z M408.5,427.4c-5.1,0.4-3.8-5.5-7.2-6.9C403.9,428.7,404.9,429.8,408.5,427.4z M459.6,505
					c2.2,2,1.6,4.9,4.5,5.4c0.7,0.1,1.5,0.2,2-0.6c0.4-0.5,0.2-1-0.2-1.2C464,507.6,462.8,505.5,459.6,505z M438.4,404.8
					c1.3,5.5,5.7,6.6,9.3,8.8C444.7,410.8,441.8,408,438.4,404.8z M390.7,433.9c-3.1,2.6-2.6,4.7,1,6.1
					C391.4,438.1,391.1,436.2,390.7,433.9z M351.6,241.6c0.7,0.2,1.8,0.8,1.5-0.9c-0.4-2.5-3.6-0.7-4.4-2.7c-0.5,0.5-1,1.1-1.5,1.6
					C349.1,239.6,349.4,242.5,351.6,241.6z M425.2,432.3c-1.9-5.1-2.6-5.8-7.1-7.2C420.6,427.9,423.6,429.4,425.2,432.3z
					 M449.9,368.5c2.4-1.8,4.7,1,7.2,0C454.1,366.1,451.5,366,449.9,368.5z M316,313.2c1,0.3,1.8,1.1,2.6,1.8
					c0.8,0.7,1.7,0.2,2.3-0.3c0.3-0.2,0.4-0.9,0.3-1.3c-0.3-1-1.3-1.2-2.1-1.1C318,312.4,317,312.9,316,313.2z M336.5,263
					c-3-1.4-6-2.9-9.7-0.7C330.4,262.6,333.5,262.8,336.5,263z M399.9,434.1c-0.7-1.7,0.4-4.1-2-5.8
					C398.3,430.7,397.1,433,399.9,434.1z M238.8,235.6c2.8-3.7,2.8-3.7-1.5-5.5C239.7,231.3,238.8,233.5,238.8,235.6z M361.9,183.5
					c-1,2.1-1.9,4.3-1.9,7.3C362.4,188.4,361.4,185.8,361.9,183.5z"/>
				<path d="M446.7,514.1c-1.2-1.8-2.5-3.3-4.5-4.2c1.9-2.7,3.5-2,5,0.3c0.9,1.4,2.8,2.1,3.3,3.8
					C449.2,514.1,447.9,514.1,446.7,514.1z"/>
				<path d="M399.8,514.1c0.5-3.7-2.2-6.8-2.2-10.7c2.1,0.3,1.8,2.9,3.8,3c0.3,0,1.1,1.6-0.3,2.8c-1.2,1.1,0.4,3.2,0.2,4.9
					C400.8,514.1,400.3,514.1,399.8,514.1z"/>
				<path d="M185.9,133.2c5.4,1.2,8.5,5.4,12.5,8c6.6,4.3,11.4,10.3,16.7,16c5.6,6,7.4,13.1,9.3,20.5c0.4,1.7-2,4.2,1.8,5.3
					c-2.9-0.5-2.9,1.4-3.2,3c-0.3,1.3,2.2,3.6-1.4,3.6c0,0-0.2,0.7,0,0.9c1.6,2.5,1.9,4.2-2.1,3.5c-0.3-0.1-0.7,1.4-1.2,0.8
					c-0.5-0.5-0.7-1.9-0.3-2.4c2.2-3.6,0.7-5.5-2.5-7.5c-1.5-0.9-2.5-3.1-3.6-4.5c-1.5-2.1,1.6-1.7,3.4-2.1c-1.5-1.3-1.1-4.4-4.4-3.1
					c-0.6,0.2-1.4-0.9-1.1-1.6c1.3-3.7,1.4-3.7-0.9-6.6c-0.9-1.1-1.4-2.3-2.2-3.4c-1.2-1.8-2.3-3.9-5.3-2.7c4.8-3.6-0.3-5.6-1.3-7.3
					c-2.7-4.5-6.5-8.3-9.7-12.4C188.6,138.9,187,136.5,185.9,133.2z"/>
				<path d="M251.7,362.9c2,1,4.1,2,6.1,3c0.4,0.7,0.9,1.5,1.3,2.2c-1.9-0.4-4.1,3.3-5.9-0.9c1.3,2.5-3.1,4.1-0.1,6.3
					c-3.3,0.1-4.1-2.8-6.6-4.5c0.5,2.1,1,3.7,1.4,5.5c-2.2-1.2-4-2.4-5.2-4.4c-1,1.2,0.7,2.2-0.2,3.3c-1.5-1.2-3.5-5.5-4,0.6
					c-0.1,0.8-1.1,0.7-1.7,0c-0.7-0.8-1.4-1.7-2.1-2.6c-0.9,1,0.9,2.3-0.5,3.2c-1.3-0.2-1-1.7-1.7-2.4c-1.9,2.9-4.6,3.4-6.8,1.2
					c-1.1,0.4-0.2,2.6-2.2,2.4c-2.5-0.3-0.3-2.6-1.6-3.4c-3,3.2-4.3,3.2-8.4-1.1c-1.6-1.6-2-1.1-2.9,0.3c-0.3-3.3-0.3-3.3-1.7-5.4
					c7.5,1,7.5,1,8.9,3.8c0.3-1.1,0.6-2.1,0.9-3.1c1.7,0.1,0.1,3.5,2.9,2.7c4.8-1.4,2.2-3.8,0.9-6c1.5,2.2,4.7,2,5.9,4.7
					c0-1.8-0.3-3.3-1.9-4.2c-0.5-0.3-1.5-0.4-1-1.1c1.7-2.2-0.6-3.2-1.2-4.7c1.7-0.4,2.9,4,4.9,0.5c0-0.1,0.6,0,0.7,0.1
					c1,2.7,4.2,1.4,5.7,3.3c-0.7-2.3-3.4-3-4.4-5.6c2.3,0.8,4.5,0.3,6.4,1.6c0.2,0.1,0.5,0.3,0.7,0.2c5.5-2.5,8.3,2.7,12.4,4.3
					C251.2,362.8,251.4,362.9,251.7,362.9z"/>
				<path d="M205,315.4c-2.5-0.1-3.2,2.4-4.7,3.6c-1.4,1.2-2,3.3-4.5,2.8c-0.7-0.1-1.6,1-1.3,1.4c0.5,0.8,0.6,2.1,2.2,2.1
					c2.7-0.1,4,0.6,1.5,3.2c-0.9,0.9-1.6,2.1-1.9,3.5c-0.3,1.8-1.7,3.4-3.4,3.5c-4.1,0.2-5.7,2.1-5.9,6c-0.1,2.1-2.3,3.8-1.9,6.4
					c-1.7-4.9-5.5-7.8-9.4-10.8c-3.9-3-5-7.4-4.3-12.8c0.2,4.2,2.4,1.4,3.8,1.7c4.3,1,7.4-1.3,10-4.2c1.4-1.6,2.8-2.3,5-1.9
					c-0.6-0.8-1.4-1.5-1.4-2.2c-0.1-0.4-1.6-2.3,1.3-2c1.6,0.2,3.6-2.1,6.1-1.5c0.8,0.2,1.8-0.3,1.7-1.5c0-1.8,1.4-2.1,2.6-2.7
					c0,0-0.2-0.2-0.2-0.2C201.4,312.1,202.6,314.2,205,315.4z"/>
				<path d="M206,142.3c1.7-1.4,3.7-0.1,4.3,0.7c1.7,2.6,6.2,2.5,6.1,6.5c0,0.4,0.3,0.7,0.7,0.6c3.6-0.6,5.6,1.2,6.8,4.4
					c0.4,1,0.9,1.3,1.8,0.2c1.2-1.5,2.8-1.5,3.2,0.6c0.7,3.6,4.4,4.8,6.4,5.3c3.6,0.9,1.7,3.6,1.5,3.9c-1.9,2.6-0.3,5.6-1.3,8.3
					c-0.4,1.2,0.9,1.9,1.7,2.6c0.5,0.4,1.7,0.1,1.2,1.3c-0.3,0.7-0.6,1.3-1.5,1.5c-1.8,0.4-3.5,1.1-5.3,1.2c-1,0.1-2.4,0.8-2.7-2
					c-0.4-4.1-2.7-8.1-4.6-12c-4-8.3-11.2-14-16.9-20.9C206.8,143.7,205.9,143.4,206,142.3z"/>
				<path d="M220.6,246.4c0,0.8,0,1.7,0,2.5c-4.1,1.8-1,4.4-0.7,6.8c-1.4,0.3-2.2,1-1.8,2.6c0.5,1.9-0.4,3.6-0.8,5.4
					c-0.1,0.2-0.1,0.5-0.2,0.7c-0.6,2.3-2-2.2-2.5,0.3c-0.3,1.3,2.6,1.8,1,3.4c-1,1-1.7,1.9-1.2,3.4c-2.3,0.8-4.5,1.8-6.8,2.4
					c-0.7,0.2-1.2-1.4-0.5-1.6c3.9-1.3,1.1-5,2.7-7.1c0.3-0.4-1.1-1.7,0.1-2.1c1.4-0.5,0.3,1.9,1.9,1.8c0.3-2.8,0-5.2-1.5-7.9
					c-1.3-2.3-1.7-0.9-2.7-0.3l0.1,0.1c-0.4-2.1-1.1-4.2-1-6.3c0-1.1,1-2.4,2.9-2.9c-1,1.9-1.4,3.6-0.4,5.4c1.3-0.2,1.6-1.3,1.9-2.3
					c0.3-1,1.3-1.4,2-1.2c1.9,0.6-0.2,1.2-0.1,1.7c0.2,1.8,2.3,1.4,2.9,2.6c2.5-3.8-1.2-5.8-2.4-8.5c2,0.7,3.2,2.1,4.2,3.6
					C218.3,245.8,218.7,245.5,220.6,246.4z"/>
				<path d="M370.6,491.3c0.8-1,1.2-3.2,3-0.8c0.3,0.4,1.4,1.4,1.5-0.6c0.1-1.9,3.2-0.2,3.7-2.4c0.1,1.4,0.3,2.9,0.4,4.3
					c0.2-2,1.3-3.3,3.9-4.7c-2.7,5.8-0.2,12-4.9,16.7c1.8-2.8-0.8-5.4-0.3-8.2c0.1-0.5-0.3-1.1-0.8-0.9c-0.4,0.1-1,0.5-1.1,0.8
					c-0.4,1.4-0.5,2.9-0.9,4.3c-0.2,1-0.2,2.5-1.7,2.5c-1.6,0-1.2-1.6-1.3-2.6c-0.1-0.5-0.1-1-0.2-2.4c-0.5,1.7-0.8,2.6-1.2,3.7
					c-1.4-1.1,0-2.4-0.6-3.4c-1.4-0.4-1.6,1.4-2.9,1.4c0.3-3.1,3.1-5,3.4-8C370.7,491.2,370.6,491.3,370.6,491.3z"/>
				<path d="M360.3,485.3c-0.2,0.5-0.5,0.9-0.6,1.3c-0.5,2-1.8,3.3-3.1,4.8c-3.1,3.8-7.8,5.6-10.5,9.7c-0.5,0.8-1,2-2.3,1.1
					c-1.1-0.7-0.4-1.7-0.1-2.6c1.8-4.5,4.3-8.3,9.4-9.6c1.4-0.4,2.6-1.2,3-3.2c0.5-2.4,3.4-2.2,5.4-2.5c0.7-0.1,1.3,1.1,1,2
					c-0.1,0.4-0.6,1-0.9,1C360.3,487.3,361.8,485.7,360.3,485.3z"/>
				<path d="M411.4,500c-0.4,0.4-2-0.9-1.4,1c0.5,1.6,1,3.2,1.2,5.1c-0.5-4.1-5.6,1.4-5.9-3.4c1.3,3.7,3.6,6.5,4.6,10
					c-0.9-1.7-2.9-2.2-4.2-3.4c-2.1-2-2.9-5.5-2.3-7.2c1.2-3.1-0.8-6.1,0.6-8.9c0.4-0.8,0.6-1.8,1.6-1.8c1,0,0.9,1,1,1.7
					C407.1,496,409.8,497.6,411.4,500z"/>
				<path d="M196.6,233.3c3.5,2.2,3.4-0.1,3.9-1.6c1,1.1,1.7,7.6,0.7,9.1c-1.1,1.6-1.2,3.5-2.2,5c-0.5,0.8-0.3,2.8-1.6,2
					c-0.8-0.5-3.1-0.4-2.4-3c0.6-2.3-0.4-4.8,2-6.7C197.9,237.1,197.6,235.4,196.6,233.3z"/>
				<path d="M208.8,304.8c-0.5,1.5-1.3,2.7,0.2,4.5c0.6,0.8-4.3,3.2-6.3,2.2c-0.8-0.4-1.6-1.1-2.4-1.6c0,0,0.2,0.2,0.2,0.2
					c-1.5-1.4-0.5-3.9-2.2-5.3c-0.2-0.1,0.1-0.9,0.2-1.3c1.4,0.5,2.1-0.7,3.1-1.2c1.2,2.7,3.5,1.8,5.6,1.7
					C207.8,303.9,208.3,304.4,208.8,304.8z"/>
				<path d="M282.8,281.1c-0.6-1-1.2-2.2-2.4-2.6c-2.6-1-1.5-2.3-0.4-3.6c3.3-0.5,6.7-0.6,9.9,0.4C289,279.1,286.5,280.9,282.8,281.1
					z"/>
				<path d="M243.9,177.4c1.2-1,2-1.5,2.4-2.1c1.4-2.1,2.7-3.7,4.3-0.1c0.9,2.1,2.3,1.2,3.5,0.1c0.6-0.5,0.7-1.8,1.9-1.1
					c0.4,0.2,0.7,0.8,0.7,1.2c-0.1,0.9-0.1,1.9-1.3,2.3c-2.2,0.7-4.2,2.2-6.8,1.1C247.3,178.3,246,178,243.9,177.4z"/>
				<path d="M332.6,443.5c2,1.7,3.4,0.1,5.1-1.7c-0.3,5.4-3.5,8.5-6.2,11.7c-0.1,0.2-0.7,0.1-1-0.1c-0.2-0.1-0.5-0.7-0.4-0.8
					c2.1-2.7,0.4-6.5,2.6-9.2C332.7,443.4,332.6,443.5,332.6,443.5z"/>
				<path d="M407.6,455.2c0.1-0.3,0.2-0.7,0.3-1c2.8,0,0.9-1.6,0.9-2.6c2.3,1.3,4.2,2.9,5.9,4.8c1.5,1.7,0.4,2.8-1,3.4
					C411.8,460.6,408,457.7,407.6,455.2z"/>
				<path d="M241.2,344.2c-1.1-0.3-2.1-0.7-3.2-0.9c-1.4-0.2-2,0.5-1.4,2.2c-2.1-0.8-3.3-2.2-2.9-4.2c0.2-0.9,0.3-2.4,2.1-2.2
					c2.6,0.3,5.4-0.2,7.6,2c-2.3,0-2.1,1.7-2.3,3.2L241.2,344.2z"/>
				<path d="M347.7,461.7c-0.4-1.7,0.2-3,0.5-4.3c0.6-2.9,3.1-5.6,0.7-8.8c-0.4-0.5,0.3-2.1,1.3-2.9c0.4-0.3,0.9-0.3,1.3,0.1
					c0.9,0.9,0,1.9,0.1,2.8c0.3,3.7-1.3,7.2-1.6,10.8C349.8,460.5,349,461.1,347.7,461.7z"/>
				<path d="M358.3,476.5c-0.3-2.1-1.6-4.2,0.4-6.2c0.9-0.9-0.3-1.4-1-1.9c-1-0.6-1.1-1.7-0.7-2.6c0.9-1.9,1,0.3,1.5,0.4
					c1.2,0.1,1-0.8,1.1-1.5c0.1-0.7,0.3-1.2,1.1-1c0.7,0.2,1.4,0.8,1.1,1.2C359.4,468.5,360.4,472.9,358.3,476.5z"/>
				<path d="M355.7,447.7c0,1.5-1.1,2.5,0.2,4.6c1.6,2.6-0.2,6.5-3.2,8.9c0.3-1.6-1-3.4,1.2-5c1.4-1-0.1-3.2-0.3-4.8
					C353.3,449.7,352.3,447.3,355.7,447.7C355.8,447.8,355.7,447.7,355.7,447.7z"/>
				<path d="M288.7,268.4c3.2-3.3,5.6,1,8.6,0.8c-4.4,0.1-8.3,2.1-12.6,2c0,0,0.3,0.2,0.3,0.2c-0.9-3.8,3.1-1.4,3.9-3.1
					C288.9,268.3,288.7,268.4,288.7,268.4z"/>
				<path d="M353,480.4c0.8-2.1-0.1-3.9-1-5.6c-1.1-2-1.1-2,1-2.6c1.3-0.4,0.8-2.4,2.8-2.6C355.9,473.5,355.2,477.1,353,480.4z"/>
				<path d="M215,309.6c1.1,1,2.3,1.6,3.8,1.5c0.6,3.4,0.6,3.3-3.1,3.2c-2.3-0.1,0.7,2.1-1,2.6c-1-0.8-0.7-1.8-0.4-2.8
					c0,0,0,0.2,0,0.2C211.6,312.2,214.1,311,215,309.6z"/>
				<path d="M214,226.6c1.4-0.2,0.9,1.6,2.1,1.8c0.9-2.1,1.8-4.3,2.7-6.4c0.1,1.3,2.9,2.8-0.1,3.8c-0.8,0.3-0.5,1.6-0.5,2.4
					c0.1,1.6-0.4,2.6-2.1,2.8c-2,0.3-1.6-1.3-2-2.3C213.8,227.9,213.3,227.3,214,226.6z"/>
				<path d="M355.1,505.1c3.3-3.7,5.8-7.9,8-12.3c0.1,0.8,0.2,1.7,0.3,2.5c0,0,0.1-0.1,0.1-0.1c-0.5,1.3-1,2.5-1.4,3.8
					c-1.1,3.3-4.2,4.4-6.7,6.1L355.1,505.1z"/>
				<path d="M439.7,442.3c3.3,0,4.4,3.1,6.6,4.6c-1.5,0.5-1.3,2-1.9,3.1c0,0,0.1,0,0.1,0c-1.4-1.4-1.8-3.6-4.2-4.2
					C438.9,445.4,439,443.7,439.7,442.3z"/>
				<path d="M332.7,430.2c2.7,0.9,0.3,2.3,0.4,3.5c-0.1,0.4-0.2,0.9-0.3,1.3c0.2,2.3-0.8,4.2-1.8,6.5
					C329.8,437.1,329.6,433.4,332.7,430.2z"/>
				<path d="M358.9,449.4c1.5,2.6,2,4.9-0.7,7.3c-1.2,1,0.5,3.1-1.3,5.2C357,457.2,356.7,453.2,358.9,449.4L358.9,449.4z"/>
				<path d="M242.3,191.4c-0.2,2-1.9,3-2,4.9c0,1.3-1.1,1.1-1.8,0.3c-0.7-0.9-1.3-2-1.9-3.1C238.9,193.7,239.5,190,242.3,191.4z"/>
				<path d="M235.1,214.8c-3.5-2.2-3.4-5.3-2-8.7c1.4,0.9-0.2,2.5,0.8,3.4c1.6-0.3,0.8-2.1,1.7-2.9c1.1,1.9,2.1,3.5-0.6,4.9
					C233.6,212.4,235.3,213.8,235.1,214.8C235,214.9,235.1,214.8,235.1,214.8z"/>
				<path d="M229.6,356.1c-2.9-1.3-3.8-3.5-6.2-3.7c-0.6-0.1-1.5-1.6-0.4-3.1c1.2-1.6,1.9-0.4,2.7,0.1
					C228,350.8,227.6,353.5,229.6,356.1z"/>
				<path d="M423.3,508.9c-0.6-0.2-1.4-0.1-1.7-0.5c-2-2.4-3.9-4.8-7.4-4.9c-0.1,0-0.2-0.7-0.3-1c2.8,0.5-0.3-2.2,1.7-2.4
					C419.1,501.8,420.4,506.1,423.3,508.9z"/>
				<path d="M202.7,263.5c0.7,2.7,0.2,5.1-1.3,7.2c-1.7,2.4-0.1,3.8,1.1,5.4c-2.4-1.5-4.6-2.9-2-6.2
					C201.9,268.1,201,265.5,202.7,263.5z"/>
				<path d="M394.6,473.4c-1.6-2.5-1.7-4.8-0.9-7.2C397.3,468.3,397.5,469.3,394.6,473.4z"/>
				<path d="M204.3,228c-1-0.5-1.2,1.9-1.9,0.8c-0.9-1.4,0.4-2.4,1.5-3.2c0.9-0.6,1.6-0.5,1.9,0.6c0.3,1-0.4,2.3,0.7,3
					c0.6,0.4,1,0.9,0.6,1.4c-0.6,0.7-1.6-0.4-2.6,0.2c-0.7,0.4-0.6-0.7-0.5-1.3C204.3,229.1,204.8,228.6,204.3,228z"/>
				<path d="M285,271.4c0,0-0.3-0.2-0.3-0.2c4,1.9,8.4,0.5,13.3,1.3c-5.2,2.4-9.5,0.1-13.9-0.2c-0.4,0-1.5-0.3-0.5-1.1
					C283.9,271,284.5,271.3,285,271.4z"/>
				<path d="M210,356.5c3.2-0.8,5.4-0.5,5.4,3.1c0,1.1-0.7,2.1-1.4,1.1C212.9,359,210.5,358.7,210,356.5z"/>
				<path d="M207.7,256.6c0.8,0.2-1.6,3.2,1.5,1.6c0.7-0.4,1.5,0.4,1.6,1.1c0.3,1.3-0.9,0.7-1.4,0.9c-1.8,0.7-1,3.7-3.4,3.7
					c-0.6,0-1.5,0.9-1.7-0.3c-0.1-0.5,0.3-0.9,1.2-1.1c2.8-0.8,1.7-3.2,1.2-5c-0.6-2,0.2-1.5,1.2-0.8
					C207.8,256.7,207.7,256.6,207.7,256.6z"/>
				<path d="M221.1,196.3c0,3.8-4.1,3.8-5,7.3C215.5,199.3,216.6,197.8,221.1,196.3z"/>
				<path d="M338.4,461.7c-0.3-1.1,0.4-2.3,1-2.1c2,0.7,3.3-0.9,5-1c0.2,0,0.8,1.4,0.6,1.6c-0.6,0.7-2.1,1.8-2.1,1.7
					C341.4,460.4,339.8,462.2,338.4,461.7z"/>
				<path d="M393.2,489.5c2.4,3.3,2.5,5.1,0.7,8.8C391.5,495.4,393.8,492.3,393.2,489.5z"/>
				<path d="M454.6,476.1c-0.8,1.4,0.7,2,1.1,3c-2.8-0.5-4.1-3.4-6.8-4.1c-0.3-0.1-0.5-0.8-0.5-1.2c0.1-0.7,0.7-0.3,1.2-0.3
					C451.7,473.5,453.2,474.6,454.6,476.1z"/>
				<path d="M359,449.5c0.4-3.3-1.8-1.9-3.3-1.8c0,0,0.1,0.1,0.1,0.1c0.8-2.3,3.1-3.8,3.6-6.3c0,0-0.1-0.1-0.1-0.1
					c0.6,1.4-0.4,3.1,1.7,4.4c1,0.6-1.1,2.4-2.1,3.6C358.9,449.4,359,449.5,359,449.5z"/>
				<path d="M269.2,381.8c3.1,3.2,6.3,6.5,9.4,9.7c0,0,0,0,0.1-0.1c-3.2-3.2-6.4-6.4-9.6-9.5C269.1,381.9,269.1,381.8,269.2,381.8z"
					/>
				<path d="M398.2,471.9c0,2.1-0.4,3.4,0.1,4.3c1.4,3-2.9,0.9-2.4,2.9c-0.6-0.9-1.2-1.8-1.6-2.8c-0.3-0.6,0.4-1.6,0.8-1.3
					C397.4,476.3,397.2,473.9,398.2,471.9z"/>
				<path d="M440.1,511.3c-1.7-1.2-3.1-2.5-4.1-4.2c-0.2-0.4-0.3-1.1-0.1-1.3c0.4-0.6,1-0.3,1.6,0.1
					C439.3,507.1,441,508.5,440.1,511.3z"/>
				<path d="M394.7,506.1c-0.2-0.7-0.3-1-0.3-1.3c0-1.7-1.1-3.7,1-5c0.6-0.4,0.9,0,1.1,0.5C397.4,502.6,396.6,504.3,394.7,506.1z"/>
				<path d="M412.1,487.3c1.8,1.9,2,4.7,4.2,7C412.8,493,412.8,493,412.1,487.3z"/>
				<path d="M437,461.9c-2.7-1.4-4.9-3.4-6.4-6.1C433.5,457,435.4,459.2,437,461.9z"/>
				<path d="M206,236.3c-0.5-1.3,0.5-2.3,1.2-2.2c1.6,0.1,1.1,2,1.5,3c0.4,0.9-0.3,2.7-1.4,2.6C205.5,239.4,206.5,237.4,206,236.3z"
					/>
				<path d="M225.5,212c0.7,0.7,1.8,1.2,1.9,1.9c0.4,2.2-2.6,0.7-3,2.5c-0.1,0.5-0.7-0.8-0.9-1.3C223,213.3,224.8,213,225.5,212z"/>
				<path d="M391.4,480.7c-2.2-2.8-1.1-6.2-1.8-9.3C392.3,474.1,390.4,477.7,391.4,480.7z"/>
				<path d="M217.6,352.7c-1.3,0-0.8-3.6-3-1.2c-0.2,0.2-0.6-1.6-0.8-2.5c-0.2-1,0.5-1.5,1.2-1.4c1.1,0,2.3,0.4,2.5,1.7
					C217.7,350.4,217.6,351.5,217.6,352.7z"/>
				<path d="M207.9,291.3c-0.1,3.1,0,6.2-2.1,8.8C206.5,297.2,205.9,293.9,207.9,291.3z"/>
				<path d="M355.2,505c-0.2,0.1-0.6,0.2-0.7,0.2c-1.5-2.2-0.1-4,0.5-6.1c0.7-2.3,1.8-1.6,3.7-0.5c-3.8,1.1-3.4,4-3.6,6.6
					C355.1,505.1,355.2,505,355.2,505z"/>
				<path d="M445.6,459.5c0.7,1.9,1.2,3.1,1.5,4.4c0.2,0.9-0.7,0.8-1.3,1c-0.4-1.7-2.8-2-3-3.5C442.7,459.4,445.2,462.3,445.6,459.5z
					"/>
				<path d="M239.8,208.1c-0.8-2.8-0.8-5.7-0.2-8.6c-0.1,2.9,2.8,5.6,0.1,8.6C239.7,208,239.8,208.1,239.8,208.1z"/>
				<path d="M330.4,443.4c0.4,3.1-0.7,4.6-3,4.8c-0.6,0-1.5,0.9-1.8-0.1c-0.3-0.9,0.9-2,1.3-1.9C329.3,447.1,329.4,444.8,330.4,443.4
					z"/>
				<path d="M262.1,172c0.3,3.4-4,2.2-4,4.9C257,173.2,260.1,173.3,262.1,172z"/>
				<path d="M213.5,234.4c1.1,0.1-0.1-2.1,1.5-1.7c0.3,0.1,0.7,0.4,0.7,0.7c0,1.1-0.8,1.8-1.6,2.2c-1,0.5-1.6-0.5-1.6-0.9
					c0.1-1.2-2.1-1.9-0.4-3.3C213.4,232,212.1,233.8,213.5,234.4z"/>
				<path d="M338.2,450.4c0-2.1-0.3-4.1,2.3-4.9c0.5-0.2,1.6-0.6,1.7,0.6c0,0.6,0.6,1.9-1.2,1.4C338.6,447,340.2,450.1,338.2,450.4z"
					/>
				<path d="M205.2,200.9c1.7-0.6,3.2-0.8,4.9-0.1c1.7,0.7,0.4,1.3,0.2,2c-0.3,0.8-0.8,1.2-1.5,0.3
					C207.9,202,206.8,201.1,205.2,200.9z"/>
				<path d="M421.6,501.6c-2.2-1.8-4.9-3.4-3.8-7.7C418.8,497,420.4,499.2,421.6,501.6z"/>
				<path d="M453.2,491.3c-2.1-0.4-1.2,1.9-2.6,2.8c-0.3-2.7-1.3-5-3.7-7.2C450.6,487.1,449.9,491.9,453.2,491.3
					C453.2,491.2,453.2,491.3,453.2,491.3z"/>
				<path d="M214.4,314.2c0,0,0-0.2,0-0.2c-2.6,1-4.6,3.4-7.6,3.6c-0.8,0-1.1-0.2-1.3-0.8C208.7,317,210.9,313.4,214.4,314.2z"/>
				<path d="M319.5,432c-0.6-0.3-2.9,0.8-1.4-1.1c1.5-2,2.6-4.4,4.7-6.9c-0.6,3.5-3.2,5.3-3.4,8.2C319.4,432.1,319.5,432,319.5,432z"
					/>
				<path d="M232.7,199c0.6,2.5-0.8,3.8-2.8,4.9C228.2,200.7,232.2,200.8,232.7,199z"/>
				<path d="M354,229.5c0.3,1.9,0.3,1.9,3.8,1.4c-0.4,1.5-1.1,2.5-2.1,3.4c-2.3,0.2-3.8-1.5-5.8-2.1
					C350.5,230.1,352.7,230.5,354,229.5z"/>
				<path d="M338.8,255.1c1.4,0.1,2.9,0.2,5.3,0.4c-2.5,1-2.3,4.7-5.3,3.2c-1.7-0.9-0.9-2.5,0.2-3.7
					C338.9,255,338.8,255.1,338.8,255.1z"/>
				<path d="M446.7,433.3c-3.6-0.9-6.2-3.1-8.2-6c2.4-0.5,3.6,2.6,6.1,1.9c0,0-0.1-0.1-0.1-0.1C443.1,431.6,446.3,431.7,446.7,433.3z
					"/>
				<path d="M351.4,258.4c-3,2.3-5.4,0.7-8.5,1.9C345.7,257.1,348.2,259.2,351.4,258.4z"/>
				<path d="M437.7,396.8c0-3.1-3.4-4.8-3.4-7.9c2.7-0.2,3.1,2.4,4.6,3.7c1.5,1.3,2.7,2.8,4.8,3c-0.6,1.2-1.5,1-2.5,0.4
					C439.9,395.2,438.8,395.8,437.7,396.8z"/>
			</g>
		</g>
	</g>

	<g id="text">
		<g>
			<path d="M160,507.5h-20.8c6.4,7.3,14.4,13.2,23.4,16.8c-2.2,1.8-5,5.4-6.4,7.8c-5.5-2.5-10.5-5.7-15.1-9.6v32.8h-9.8v-3h-33v3.4
				H89v-32.4c-4.6,4.1-9.9,7.8-15.9,11c-1.1-2.4-4-6-6.2-7.6c10.2-5,18.2-11.7,24.2-19.2h-22v-7.8h27.4c1.3-2.2,2.5-4.6,3.6-6.9H78.6
				v-7.6h24.5c0.8-2.2,1.4-4.5,2-6.8H74.5v-7.7h32.1c0.5-2.9,0.8-5.8,1-8.7l11.9,0.8c-0.3,1.1-1,1.7-2.6,1.9c-0.2,2-0.5,4-0.8,6h39.1
				v7.7h-40.6c-0.5,2.3-1.1,4.5-1.8,6.8h38v7.6h-21.3c1.2,2.4,2.5,4.7,3.9,6.9H160V507.5z M132.9,514.3c-1.8-2.2-3.5-4.4-5.1-6.8
				h-25.3c-1.5,2.3-3.1,4.6-4.9,6.8H132.9z M131.3,529.5v-7.7h-33v7.7H131.3z M98.3,544.8h33v-8.3h-33V544.8z M123.1,499.7
				c-1.1-2.2-2.2-4.5-3.2-6.9h-9.8c-0.9,2.3-1.9,4.6-3.1,6.9H123.1z"/>
		</g>
	</g>
</svg>
